<?xml version="1.0" encoding="UTF-8"?>
<svg id="Layer_1" data-name="Layer 1" xmlns="http://www.w3.org/2000/svg" viewBox="0 0 197.83 197.83">
  <defs>
    <style>
      .cls-1 {
        fill: #bf92ff;
      }
    </style>
  </defs>
  <path class="cls-1" d="M194.91,103.74c-9.18,9.27-40.45,10.97-54.88,11.25,10.41,9.99,32.23,32.45,32.69,45.49.09,2.83-.73,5.17-2.47,6.98-1.73,1.81-4.04,2.73-6.87,2.74-13.05.07-36.36-20.84-46.76-30.84.3,14.42-.15,45.73-9.05,55.27-1.93,2.07-4.18,3.14-6.68,3.19-.28,0-.54,0-.8-.02-2.2-.16-4.2-1.13-6-2.9-9.27-9.18-10.96-40.45-11.25-54.88-9.99,10.41-32.44,32.23-45.49,32.69-2.83.09-5.17-.73-6.98-2.47-1.8-1.73-2.73-4.04-2.74-6.87-.06-13.05,20.84-36.36,30.85-46.76-14.43.29-45.74-.15-55.28-9.05C1.13,105.64.05,103.39,0,100.89c-.05-2.51.94-4.8,2.93-6.81,3.22-3.25,9.17-5.57,16.14-7.23,12.91-3.06,29.36-3.84,38.73-4.02-1.72-1.65-3.76-3.65-5.97-5.9-11.09-11.27-26.33-28.71-26.72-39.59-.09-2.83.74-5.17,2.47-6.98,1.74-1.81,4.05-2.73,6.87-2.74,13.07-.07,36.37,20.84,46.76,30.84-.29-14.42.16-45.73,9.06-55.27C92.19,1.13,94.44.05,96.95,0c2.5-.06,4.79.93,6.8,2.92,9.27,9.19,10.97,40.46,11.25,54.88,10-10.4,32.45-32.23,45.49-32.69,2.83-.09,5.17.73,6.99,2.47,1.8,1.74,2.73,4.05,2.73,6.87.07,13.05-20.84,36.36-30.84,46.76,14.42-.3,45.73.16,55.27,9.06,2.07,1.92,3.14,4.17,3.19,6.67.06,2.51-.93,4.8-2.92,6.81Z"/>
</svg>