<?xml version="1.0" encoding="UTF-8"?>
<svg id="Layer_2" data-name="Layer 2" xmlns="http://www.w3.org/2000/svg" viewBox="0 0 273.46 471.25">
  <defs>
    <style>
      .cls-1 {
        fill: #444;
      }
    </style>
  </defs>
  <g id="Layer_1-2" data-name="Layer 1">
    <path class="cls-1" d="M192.44,182.24c.21.69,5.02,17.24,3.17,41.09-1.7,21.93-9.61,54.54-37.63,85.29l-3.24,3.55c6.09,14.7,11.46,31.19,15.6,50.48,8.48,39.48.73,77.78-10.05,108.6h-15.97c9.05-24.5,16.44-54.32,14.2-85.36-3.56-.74-17.73-4.26-34.21-16.26-16.93-12.34-39.84-36.48-52.78-81.44l-3.18-11.04,11.02,3.27c.69.2,17.18,5.19,36.16,19.76,9.77,7.49,21.27,18.44,31.35,33.68-10.28-30.11-23.94-52.59-37.26-74.51-17.47-28.76-35.54-58.5-45.72-104.28-2.16-9.72-2.81-20.27-1.99-31.05-5.46-2.88-16.06-9.46-26.96-21.73C21.03,86.62,3.81,58.15.75,11.47L0,0l10.07,5.54c.64.35,15.68,8.74,31.12,27.02,10.31,12.22,22.25,30.75,28.64,55.93,7.2-19.19,18.67-36.19,33.43-49.49,1.42-1.28,2.86-2.52,4.33-3.71,3.9-3.2,7.98-6.13,12.22-8.78,13.97-8.74,29.76-14.55,47.16-17.33,16.71-2.66,34.67-2.45,53.69.62,2.41,2.13,50.93-.1,52.8,1.46-9.52.86,7.3,13.47-5.62,17.52-25.53.49-91.5-15.24-139.62,10.17-4.69,2.48-8.56,5.78-12.18,8.82-.94.79-1.86,1.58-2.74,2.38-32.83,29.56-41.03,73.42-34.75,101.66,9.63,43.36,26.27,70.75,43.89,99.75,6.83,11.25,13.76,22.65,20.31,35.11-.61-5.19-.91-11.27-.55-18.09,1.1-20.92,8.83-53.29,39.45-88.67l7.52-8.69,3.27,11.02Z"/>
  </g>
</svg>