<?xml version="1.0" encoding="UTF-8"?>
<svg id="Layer_2" data-name="Layer 2" xmlns="http://www.w3.org/2000/svg" viewBox="0 0 1384.92 635.3">
  <defs>
    <style>
      .cls-1 {
        fill: #000dff;
      }
    </style>
  </defs>
  <g id="Layer_1-2" data-name="Layer 1">
    <path class="cls-1" d="M2.41,5h415.07l-1.26-4.66c-2.04,1-4.08,2-6.12,2.99l-16.64,8.15-24.51,12c-9.96,4.88-19.93,9.76-29.89,14.64-10.95,5.36-21.9,10.72-32.85,16.09s-22.11,10.83-33.16,16.24c-10.27,5.03-20.54,10.06-30.82,15.09-8.68,4.25-17.37,8.5-26.05,12.76l-18.8,9.21c-2.96,1.45-5.97,2.83-8.89,4.35-.12.06-.25.12-.38.18-1.1.54-1.49,2.06-1.02,3.12.52,1.19,1.69,1.69,2.95,1.45.78-.15,1.55-.3,2.33-.46l6.67-1.3,10.55-2.06c4.65-.91,9.3-1.82,13.95-2.73l16.88-3.3,19.35-3.78,21.34-4.17,22.87-4.47c7.97-1.56,15.95-3.12,23.92-4.68s16.34-3.19,24.51-4.79l24.62-4.81c8.09-1.58,16.18-3.16,24.27-4.74l23.44-4.58,22.15-4.33c6.79-1.33,13.59-2.66,20.38-3.98l18.15-3.55,15.44-3.02,12.27-2.4,8.62-1.69,4.52-.88.55-.11-3.08-3.08c-.41,1.35-.82,2.7-1.23,4.05l-3.51,11.6-5.55,18.33c-2.45,8.08-4.89,16.16-7.34,24.25l-8.88,29.35c-3.39,11.21-6.78,22.42-10.18,33.63-3.72,12.29-7.44,24.58-11.16,36.87-4.01,13.24-8.01,26.48-12.02,39.72s-8.38,27.7-12.57,41.55c-4.29,14.19-8.59,28.38-12.88,42.57l-12.94,42.76-12.75,42.14-12.32,40.7c-3.87,12.78-7.74,25.56-11.6,38.34-3.56,11.76-7.12,23.53-10.68,35.29-3.18,10.5-6.36,21-9.53,31.5-2.7,8.93-5.41,17.87-8.11,26.8l-6.44,21.28-4.52,14.94-2.35,7.78c-.1.32-.19.63-.29.95-.36,1.18.33,2.5,1.45,2.95,1.24.5,2.35,0,3.12-1.02.81-1.08,1.62-2.16,2.43-3.23l6.96-9.27,10.93-14.55c4.84-6.45,9.69-12.9,14.53-19.35,5.83-7.76,11.65-15.52,17.48-23.27,6.72-8.94,13.43-17.88,20.15-26.82,7.41-9.86,14.82-19.73,22.23-29.59,7.89-10.5,15.78-21.01,23.67-31.51,8.3-11.05,16.6-22.11,24.91-33.16,8.48-11.29,16.96-22.58,25.44-33.87,8.52-11.34,17.04-22.68,25.56-34.02l25.26-33.63c8.09-10.76,16.17-21.53,24.26-32.29s15.37-20.46,23.05-30.69l21.15-28.15c6.28-8.35,12.55-16.71,18.83-25.06,5.35-7.13,10.71-14.25,16.06-21.38,4.23-5.63,8.45-11.25,12.68-16.88l8.96-11.93,4.66-6.21c.19-.25.38-.5.57-.76l-4.66-1.26c.18,4.42.36,8.84.53,13.26l1.27,31.58c.52,12.81,1.03,25.62,1.55,38.43.44,11.01.89,22.01,1.33,33.02.22,5.38.31,10.78.65,16.16,0,.07,0,.15,0,.22.11,2.79,4.1,3.43,4.91.66,1.38-4.74,2.77-9.48,4.15-14.23,3.3-11.3,6.6-22.6,9.9-33.9,3.99-13.66,7.97-27.31,11.96-40.97,3.46-11.84,6.91-23.67,10.37-35.51l3.41-11.67c.54-1.84,1.21-3.69,1.62-5.56.02-.08.05-.16.07-.23l-4.18,1.1c.63.5,1.27.99,1.9,1.49l5.48,4.3,8.62,6.77,11.4,8.95,13.87,10.89,15.81,12.42,17.44,13.69,18.78,14.74c6.52,5.12,13.03,10.23,19.55,15.35l20.02,15.72c6.74,5.29,13.48,10.58,20.22,15.87s13.22,10.38,19.83,15.57,12.77,10.02,19.15,15.04,12.12,9.52,18.18,14.27c5.55,4.36,11.1,8.71,16.65,13.07,4.94,3.88,9.88,7.76,14.82,11.64l12.61,9.9,10.07,7.9,7.03,5.52,3.68,2.89c.15.12.31.24.46.36,1.16.91,2.36.93,3.54,0,.83-.66,1.67-1.32,2.5-1.98l7.17-5.68c3.78-2.99,7.56-5.98,11.33-8.97,4.98-3.94,9.95-7.88,14.93-11.82,6.02-4.76,12.04-9.53,18.06-14.29,6.92-5.48,13.85-10.96,20.77-16.44,7.64-6.04,15.27-12.09,22.91-18.13,8.18-6.48,16.37-12.95,24.55-19.43s17.06-13.5,25.58-20.25c8.77-6.94,17.54-13.88,26.3-20.82,8.78-6.95,17.55-13.89,26.33-20.84s17.36-13.74,26.04-20.61c8.39-6.64,16.77-13.27,25.16-19.91,7.92-6.27,15.84-12.54,23.76-18.81,7.26-5.75,14.52-11.5,21.79-17.24,6.49-5.14,12.98-10.27,19.47-15.41,5.5-4.35,11-8.71,16.5-13.06,4.39-3.47,8.77-6.94,13.16-10.41l9.24-7.31,4.81-3.81c.2-.16.39-.31.59-.47,1.79-1.42.21-4.23-1.77-4.27-6.45-.14-12.91-.26-19.37-.37-8.14-.15-16.28-.28-24.42-.41-9.64-.16-19.28-.31-28.92-.46-10.96-.17-21.92-.33-32.88-.5-12.1-.18-24.19-.36-36.29-.54-13.05-.2-26.1-.39-39.15-.59-13.82-.21-27.65-.42-41.47-.63s-28.83-.45-43.24-.68-29.64-.48-44.46-.72-30.09-.51-45.14-.77-30.18-.54-45.26-.82c-14.95-.28-29.9-.56-44.85-.86-14.63-.29-29.25-.59-43.88-.91s-28.25-.62-42.37-.96-26.87-.65-40.31-1.01c-12.57-.33-25.14-.68-37.71-1.06-11.48-.34-22.96-.71-34.44-1.1-10.29-.35-20.58-.73-30.87-1.15-8.88-.36-17.75-.76-26.62-1.2-7.28-.37-14.56-.77-21.83-1.26-2.89-.19-5.78-.4-8.67-.62v5c22.56-.67,45.12-1.34,67.68-2.01,22.48-.67,44.96-1.34,67.44-2.01s45.12-1.34,67.68-2.01c22.48-.67,44.96-1.34,67.44-2.01s44.96-1.34,67.44-2.01c2.83-.08,5.66-.17,8.49-.25,3.21-.1,3.23-4.93,0-5-23.19-.48-46.39-.83-69.59-1.04-23.2-.21-46.4-.27-69.6-.2-23.12.07-46.23.28-69.35.62s-46.39.83-69.58,1.46c-23.19.62-46.38,1.39-69.56,2.29-2.83.11-5.65.22-8.47.34-3.21.13-3.22,5.13,0,5,23.18-.93,46.37-1.73,69.56-2.39s46.38-1.18,69.58-1.56c23.11-.38,46.23-.62,69.35-.73,23.2-.1,46.4-.07,69.6.1s46.4.48,69.59.93c2.83.05,5.65.11,8.48.17v-5c-22.56.67-45.12,1.34-67.68,2.01-22.48.67-44.96,1.34-67.44,2.01-22.56.67-45.12,1.34-67.68,2.01s-44.96,1.34-67.44,2.01-44.96,1.34-67.44,2.01c-2.83.08-5.66.17-8.49.25-3.25.1-3.18,4.75,0,5,6.43.51,12.88.91,19.32,1.28,8.12.46,16.25.86,24.38,1.23,9.63.43,19.25.82,28.88,1.18,10.95.41,21.9.78,32.85,1.13,12.09.39,24.17.74,36.26,1.08,13.04.36,26.09.71,39.13,1.03,13.82.34,27.63.67,41.45.98s28.82.63,43.22.93,29.63.6,44.45.89,30.09.57,45.13.84c15.09.27,30.18.53,45.27.79s29.9.5,44.85.75c14.63.24,29.26.47,43.89.7s28.26.44,42.39.65c13.44.2,26.89.41,40.33.61,12.58.19,25.15.38,37.73.56,11.49.17,22.98.34,34.47.52,10.3.16,20.6.31,30.9.48,8.89.14,17.77.28,26.66.43,7.29.12,14.58.25,21.87.39,2.9.06,5.79.11,8.69.17l-1.77-4.27c-.83.66-1.67,1.32-2.5,1.98l-7.17,5.68c-3.78,2.99-7.56,5.98-11.33,8.97-4.98,3.94-9.95,7.88-14.93,11.82-6.02,4.76-12.04,9.53-18.06,14.29-6.92,5.48-13.85,10.96-20.77,16.44-7.64,6.04-15.27,12.09-22.91,18.13-8.18,6.48-16.37,12.95-24.55,19.43-8.53,6.75-17.06,13.5-25.58,20.25s-17.54,13.88-26.3,20.82l-26.33,20.84-26.04,20.61c-8.39,6.64-16.77,13.27-25.16,19.91-7.92,6.27-15.84,12.54-23.76,18.81-7.26,5.75-14.52,11.5-21.79,17.24-6.49,5.14-12.98,10.27-19.47,15.41-5.5,4.35-11,8.71-16.5,13.06-4.39,3.47-8.77,6.94-13.16,10.41l-9.24,7.31-4.81,3.81c-.2.16-.39.31-.59.47h3.54c-.63-.5-1.27-.99-1.9-1.49l-5.48-4.3c-2.87-2.26-5.75-4.51-8.62-6.77-3.8-2.98-7.6-5.97-11.4-8.95-4.62-3.63-9.24-7.26-13.87-10.89-5.27-4.14-10.54-8.28-15.81-12.42-5.81-4.56-11.63-9.13-17.44-13.69-6.26-4.91-12.52-9.83-18.78-14.74-6.52-5.12-13.03-10.23-19.55-15.35-6.67-5.24-13.35-10.48-20.02-15.72l-20.22-15.87c-6.61-5.19-13.22-10.38-19.83-15.57s-12.77-10.02-19.15-15.04l-18.18-14.27-16.65-13.07-14.82-11.64-12.61-9.9-10.07-7.9-7.03-5.52-3.68-2.89-.46-.36c-1.45-1.14-3.61-.86-4.18,1.1-1.38,4.74-2.77,9.48-4.15,14.23l-9.9,33.9c-3.99,13.66-7.97,27.31-11.96,40.97l-10.37,35.51-3.41,11.67c-.54,1.84-1.21,3.69-1.62,5.56-.02.08-.05.16-.07.23l4.91.66c-.18-4.42-.36-8.84-.53-13.26-.42-10.53-.85-21.05-1.27-31.58-.52-12.81-1.03-25.62-1.55-38.43-.44-11.01-.89-22.01-1.33-33.02-.22-5.38-.29-10.79-.65-16.16,0-.07,0-.15,0-.22-.11-2.64-3.21-3.19-4.66-1.26-.81,1.08-1.62,2.16-2.43,3.23l-6.96,9.27-10.93,14.55c-4.84,6.45-9.69,12.9-14.53,19.35-5.83,7.76-11.65,15.52-17.48,23.27-6.72,8.94-13.43,17.88-20.15,26.82-7.41,9.86-14.82,19.73-22.23,29.59-7.89,10.5-15.78,21.01-23.67,31.51-8.3,11.05-16.6,22.11-24.91,33.16s-16.96,22.58-25.44,33.87c-8.52,11.34-17.04,22.68-25.56,34.02s-16.84,22.42-25.26,33.63-16.17,21.53-24.26,32.29l-23.05,30.69c-7.05,9.38-14.1,18.77-21.15,28.15-6.28,8.35-12.55,16.71-18.83,25.06-5.35,7.13-10.71,14.25-16.06,21.38-4.23,5.63-8.45,11.25-12.68,16.88l-8.96,11.93-4.66,6.21c-.19.25-.38.5-.57.76l4.57,1.93c.41-1.35.82-2.7,1.23-4.05l3.51-11.6,5.55-18.33,7.34-24.25,8.88-29.35c3.39-11.21,6.78-22.42,10.18-33.63,3.72-12.29,7.44-24.58,11.16-36.87l12.02-39.72,12.57-41.55c4.29-14.19,8.59-28.38,12.88-42.57s8.63-28.51,12.94-42.76,8.5-28.09,12.75-42.14,8.21-27.13,12.32-40.7l11.6-38.34c3.56-11.76,7.12-23.53,10.68-35.29,3.18-10.5,6.36-21,9.53-31.5l8.11-26.8,6.44-21.28,4.52-14.94,2.35-7.78.29-.95c.59-1.94-1.29-3.43-3.08-3.08-.78.15-1.55.3-2.33.46l-6.67,1.3-10.55,2.06-13.95,2.73-16.88,3.3-19.35,3.78-21.34,4.17-22.87,4.47-23.92,4.68-24.51,4.79-24.62,4.81c-8.09,1.58-16.18,3.16-24.27,4.74l-23.44,4.58-22.15,4.33c-6.79,1.33-13.59,2.66-20.38,3.98l-18.15,3.55-15.44,3.02-12.27,2.4-8.62,1.69-4.52.88-.55.11,1.93,4.57c2.04-1,4.08-2,6.12-2.99l16.64-8.15c8.17-4,16.34-8,24.51-12,9.96-4.88,19.93-9.76,29.89-14.64l32.85-16.09c11.05-5.41,22.11-10.83,33.16-16.24,10.27-5.03,20.54-10.06,30.82-15.09l26.05-12.76c6.27-3.07,12.53-6.14,18.8-9.21,2.96-1.45,5.98-2.82,8.89-4.35.12-.06.25-.12.38-.18,2.29-1.12,1.1-4.66-1.26-4.66H2.41C-.8,0-.81,5,2.41,5h0Z"/>
  </g>
</svg>