<?xml version="1.0" encoding="UTF-8"?>
<svg id="Layer_2" data-name="Layer 2" xmlns="http://www.w3.org/2000/svg" viewBox="0 0 419.65 636.69">
  <defs>
    <style>
      .cls-1 {
        fill: #34630f;
      }
    </style>
  </defs>
  <g id="Layer_1-2" data-name="Layer 1">
    <path class="cls-1" d="M412.54,309.07c-7.08,20.82-22.81,50.46-57.56,73.33l-2.02,1.33c2.66,4.8,5.16,9.82,7.51,15.08,28.28,63.39,22.86,143.38-16.09,237.88h-16.25c15.35-36.18,25.67-70.09,30.96-101.58l-2.25-.31c-.66-.1-16.42-2.37-35.47-15.46-17.28-11.87-40.83-35.37-55-79.96l-3.49-10.95,11.11,2.96c.71.19,17.32,4.72,36.7,18.76,16.66,12.07,38.44,33.66,50.66,69.09,5.05-43,.19-81.2-14.58-114.31-21.33-47.82-58.13-75.03-97.09-103.84-32.87-24.31-66.6-49.25-94.38-87.88-2.89-4.01-5.71-8.16-8.45-12.48-5.53-8.68-10.77-18.02-15.65-28.13-1.5-3.1-2.94-6.23-4.32-9.38l-1.05.24c-.65.15-16.18,3.67-38.66-1.72-20.38-4.9-50.79-18.4-79.99-54.94l-7.18-8.98,11.43-1.22c.73-.08,17.86-1.8,40.98,4.37,18.07,4.82,42.93,15.47,65.42,38.94-10.53-30.99-16.08-64.3-16.58-99.65-.19-13.14.32-26.57,1.53-40.26l14.94,1.32c-1.18,13.34-1.67,26.41-1.46,39.19.59,38.11,7.3,73.69,20.06,106.3.79-5.51,3.49-18.43,12.36-33.74,10.5-18.12,32.12-43.42,75.49-60.99l10.65-4.31-2.1,11.3c-.13.71-3.38,17.64-15.89,38.03-11.49,18.75-33.38,44.19-72.33,58.81l-3.81,1.43c1.28,2.94,2.63,5.85,4.02,8.74,4.47,9.26,9.28,17.85,14.36,25.87,2.72,4.31,5.53,8.45,8.41,12.44,26.62,36.95,59.29,61.1,91.12,84.64,32.39,23.95,63.32,46.84,86.18,81.21-.04-6.82.77-17.59,4.81-30.54,6.24-20,21.74-49.45,60.16-76.16l9.44-6.56.44,11.49c.03.72.6,17.95-7.09,40.6Z"/>
  </g>
</svg>