<?xml version="1.0" encoding="UTF-8"?>
<svg id="Layer_2" data-name="Layer 2" xmlns="http://www.w3.org/2000/svg" viewBox="0 0 221.31 342.45">
  <defs>
    <style>
      .cls-1 {
        fill: #444;
      }
    </style>
  </defs>
  <g id="Layer_1-2" data-name="Layer 1">
    <path class="cls-1" d="M221.31,56.08l-2.1,11.3c-.13.71-3.38,17.64-15.89,38.03-11.49,18.75-33.38,44.19-72.33,58.81l-2.47.93c-1.3,3.28-2.81,6.44-4.53,9.46-5.94,10.42-12.89,16.85-19.61,23.07-7.41,6.84-13.8,12.76-18.7,23.68-13.17,29.35-3.54,70.07,28.61,121.09h-17.8c-15.22-25.53-24.97-48.84-29.21-69.83l-1.6-.64c-.62-.25-15.38-6.24-30.73-23.52C21.03,232.79,3.81,204.32.75,157.64l-.75-11.47,10.07,5.54c.64.35,15.68,8.74,31.12,27.02,9.24,10.94,19.78,26.95,26.46,48.26,1.08-4.09,2.48-8.04,4.19-11.85,6.17-13.74,14.34-21.29,22.24-28.6,6.15-5.68,11.96-11.06,16.73-19.44,16.87-29.59,8.48-75.91-24.92-137.86-3.75-6.96-7.82-14.12-12.21-21.48l13.03-7.76c4.12,6.92,7.99,13.69,11.58,20.31,4.02,7.41,7.72,14.63,11.08,21.66h0c12.2,25.53,19.99,48.49,23.26,68.59.7,4.34,1.2,8.56,1.49,12.68.34-.61.69-1.23,1.05-1.85,10.5-18.13,32.12-43.43,75.49-60.99l10.65-4.32Z"/>
  </g>
</svg>