<?xml version="1.0" encoding="UTF-8"?>
<svg id="Layer_2" data-name="Layer 2" xmlns="http://www.w3.org/2000/svg" viewBox="0 0 220.97 568.44">
  <defs>
    <style>
      .cls-1 {
        fill: #444;
      }
    </style>
  </defs>
  <g id="Layer_1-2" data-name="Layer 1">
    <path class="cls-1" d="M220.97,305.45l-5.54,10.07c-.35.64-8.74,15.68-27.02,31.12-16.81,14.19-45.58,31.46-87.15,33.11l-2.26.09c-1.28,1.98-2.58,3.92-3.87,5.86-9.46,14.18-18.38,27.58-21.66,49.39-6,40.01,11.66,84.87,52.5,133.35h-19.34c-38.11-48.33-54.25-93.88-47.99-135.58.1-.67.2-1.33.31-1.98-3.38-1.71-16.05-8.79-28.77-24.51C17.01,390.08,1.11,360.84.22,314.06l-.22-11.49,9.8,6.01c.61.37,15.26,9.46,29.83,28.43,10.9,14.18,23.47,36.38,27.64,66.55,4.5-9.85,9.99-18.09,15.38-26.18,10.33-15.5,19.25-28.89,20.5-52.24,1.57-29.71-11.23-48.79-26.06-70.89-11.23-16.74-23.96-35.71-31.49-61.55-10.7-36.76-7.94-77.99,8.18-123.14C61.72,47.3,72.91,24.1,87.33,0l12.87,7.7c-12.04,20.12-21.73,39.54-29.04,58.2h0c-17.87,45.57-21.64,86.63-11.16,122.6,6.88,23.62,18.4,40.79,29.55,57.39,15.64,23.32,30.42,45.34,28.57,80.05-.33,6.25-1.15,11.91-2.35,17.14.93-.89,1.9-1.78,2.91-2.68,15.67-13.92,44.14-31.14,90.82-34.2l11.47-.75Z"/>
  </g>
</svg>