<?xml version="1.0" encoding="UTF-8"?>
<svg id="Layer_2" data-name="Layer 2" xmlns="http://www.w3.org/2000/svg" viewBox="0 0 185.92 185.92">
  <defs>
    <style>
      .cls-1 {
        fill: #404041;
      }
    </style>
  </defs>
  <g id="Layer_1-2" data-name="Layer 1">
    <path class="cls-1" d="M183.59,91.11c-8.02,9.33-37.32,13.01-50.88,14.24,10.46,8.7,32.48,28.39,33.78,40.62.28,2.65-.34,4.92-1.86,6.73-1.51,1.82-3.62,2.84-6.28,3.04-12.27.93-35.59-17.19-46.04-25.9,1.24,13.55,2.9,43.03-4.83,52.6-1.68,2.08-3.72,3.23-6.07,3.45-.26.03-.51.04-.76.04-2.08,0-4.03-.79-5.84-2.33-9.33-8.02-13.01-37.32-14.24-50.88-8.7,10.46-28.38,32.48-40.62,33.78-2.65.28-4.92-.34-6.73-1.86-1.81-1.51-2.84-3.62-3.04-6.28-.92-12.27,17.19-35.59,25.91-46.04-13.56,1.24-43.04,2.9-52.61-4.83-2.07-1.68-3.23-3.72-3.45-6.07-.21-2.36.56-4.57,2.3-6.6,2.81-3.27,8.25-5.85,14.7-7.87,11.94-3.74,27.37-5.57,36.17-6.37-1.73-1.44-3.78-3.19-6.01-5.16-11.18-9.87-26.69-25.25-27.78-35.46-.28-2.65.35-4.92,1.86-6.73,1.52-1.82,3.63-2.84,6.28-3.04,12.29-.93,35.6,17.19,46.04,25.9-1.23-13.55-2.89-43.03,4.84-52.6,1.67-2.07,3.71-3.23,6.07-3.45,2.35-.22,4.56.55,6.59,2.29,9.33,8.03,13.02,37.33,14.24,50.88,8.71-10.45,28.39-32.48,40.62-33.78,2.65-.28,4.92.34,6.74,1.86,1.81,1.52,2.84,3.63,3.03,6.28.93,12.27-17.19,35.59-25.9,46.04,13.55-1.24,43.03-2.89,52.6,4.84,2.08,1.67,3.23,3.71,3.45,6.06.22,2.36-.55,4.57-2.29,6.6Z"/>
  </g>
</svg>