<?xml version="1.0" encoding="UTF-8"?>
<svg id="Layer_2" data-name="Layer 2" xmlns="http://www.w3.org/2000/svg" viewBox="0 0 323.27 509.74">
  <defs>
    <style>
      .cls-1 {
        fill: #404041;
      }
    </style>
  </defs>
  <g id="Layer_1-2" data-name="Layer 1">
    <path class="cls-1" d="M323.27,245.92c0,40.55-22.94,78.48-64.59,106.82-33.54,22.82-77.47,37.57-111.93,37.57-9.88,0-19-2.21-27.2-6.1,40.73,49.83,22.99,125.53,22.99,125.53-60.64-64.5-45.74-122.5-40.41-137.42-16.91-15.68-26.86-39.45-26.86-62.26,0-19.04,6.9-36.26,19.44-48.47,14.31-13.93,35.79-21.3,62.09-21.3,19.59,0,34.73-5.45,44.99-16.2,6.21-6.49,13.6-18.19,13.6-37.08,0-17.44-6.48-35.23-17.76-48.8-12.17-14.62-28.82-22.67-46.89-22.67-39.18,0-55.61,23.72-74.63,51.18-5.02,7.24-10.2,14.72-15.99,21.88,60.4-27.59,130.39,13.05,130.39,13.05-76.69,37.86-127.03,10.06-141.81-.39-12.33,12.08-27.63,21.95-48.7,26.16v-14.3c32.08-7.43,47.96-30.35,64.6-54.37,3.86-5.58,7.75-11.19,11.87-16.61C43.47,74.19,101.02,0,101.02,0c19.56,58.01,7.56,98.16-5.36,121.16,13.59-11.64,30.71-19.62,55.08-19.62,22.3,0,42.77,9.84,57.65,27.72,13.34,16.04,21,37.09,21,57.75,0,18.36-6.21,34.96-17.47,46.75-12.83,13.43-31.89,20.53-55.12,20.53s-40.51,5.83-52.32,17.34c-12.58,12.24-15.21,27.65-15.21,38.43,0,16.29,5.94,32.9,16.31,45.56,7.98,9.75,17.94,16.3,28.82,19.12,5.24-72.93,87.8-110.39,87.8-110.39-11.88,73.55-52.74,101.91-74.37,111.95,31.68-.3,71.95-14.02,102.97-35.13,21.84-14.86,58.47-46.99,58.47-95.25h14Z"/>
  </g>
</svg>