<?xml version="1.0" encoding="UTF-8"?>
<svg id="Layer_2" data-name="Layer 2" xmlns="http://www.w3.org/2000/svg" viewBox="0 0 482.16 545.72">
  <defs>
    <style>
      .cls-1 {
        fill: #404041;
      }
    </style>
  </defs>
  <g id="Layer_1-2" data-name="Layer 1">
    <path class="cls-1" d="M482.16,319.38v13.94c-25.41-1.71-43.7,2.18-55.42,11.68-20.25,16.41-19.92,49.13-19.57,83.76.39,38.48.79,78.26-27.32,101.46-14.05,11.6-27.17,15.5-38.46,15.5-8.67,0-16.25-2.3-22.35-5.17-18.22-8.59-35.2-28.04-47.79-54.76-3.88-8.23-7.2-16.82-9.89-25.49-73.44,3.87-120.62-74.24-120.62-74.24,67.1,2.87,100.48,33.42,115.58,54.3-2-10.18-3.05-20.19-3.05-29.57,0-72.61,44.98-103.41,108.53-139,30.12-16.87,48.68-63.55,28.29-106.16-6.05-12.63-14.57-22.36-25.13-29.08-19.69,71.29-109.41,90.83-109.41,90.83,29.47-75.62,81.32-91.58,101.89-94.95-22.49-10.49-52.42-9.3-86.43,4.37-67.12,26.98-107.26,6.93-142.68-10.77-37.08-18.52-66.37-33.15-119.87,7.4L0,122.27c27.43-20.79,51.47-29.89,75.64-28.6,21.5,1.13,39.69,10.22,58.95,19.84,9.91,4.95,19.92,9.95,30.62,13.97C110.84,88.57,111.95,6.94,111.95,6.94c73.03,49.92,71,109.73,69,125.49,22.89,5.69,49.61,5.54,84.84-8.62,33.28-13.38,62.81-16.03,87.78-7.88,6.14,2,11.89,4.63,17.22,7.84-34.57-52.13-12.85-123.77-12.85-123.77,56.09,67.91,37.99,124.59,31.62,139.5,5.16,5.88,9.57,12.6,13.16,20.09,9.9,20.69,12.33,45.74,6.67,68.73-6.04,24.58-20.52,44.35-40.75,55.68-33.24,18.62-58.85,34.95-75.78,54.12-17.7,20.04-25.59,42.45-25.59,72.67,0,32.3,12.02,65.13,27.71,88.28-6.79-66.46,55.05-119.65,55.05-119.65,10.19,81.61-28.98,120.26-45.09,132.48,6.55,7.31,13.4,12.85,20.07,15.99,15.07,7.1,30.52,4.25,45.93-8.46,22.96-18.95,22.59-55.34,22.23-90.53-.37-36.43-.75-74.11,24.75-94.77,14.29-11.59,35.49-16.49,64.24-14.75Z"/>
  </g>
</svg>