<?xml version="1.0" encoding="UTF-8"?>
<svg id="Layer_2" data-name="Layer 2" xmlns="http://www.w3.org/2000/svg" viewBox="0 0 565.99 315.82">
  <defs>
    <style>
      .cls-1 {
        fill: #404041;
      }
    </style>
  </defs>
  <g id="Layer_1-2" data-name="Layer 1">
    <path class="cls-1" d="M430.9,198.47c-7.06,6.94-15.26,12.54-24.26,16.66,53.38,8.93,92.38,55.32,92.38,55.32-82.5,9.36-120.65-31.08-132.3-47.03-48.83-.37-83.65-31.5-117.34-61.61-19.22-17.18-38.78-34.67-61.4-47.3,43.75,52.11,20.17,132.11,20.17,132.11-55.77-66.46-39.46-122.6-32.99-138.55-16.65-7.44-35.03-12.04-56.07-12.04s-41.99,7.21-59.6,20.85c-17.18,13.32-30.35,31.72-38.09,53.24-9.01,25.08-9.81,52.18-2.3,78.35,7.05,24.57,20.91,47.16,41.28,67.35h-19.25c-17.02-19.32-28.91-40.58-35.49-63.49-8.32-29.01-7.43-59.08,2.59-86.95,8.64-24.02,23.4-44.62,42.69-59.56,20.08-15.56,43.65-23.79,68.17-23.79.47,0,.94,0,1.41.01C145.39,14.51,233.28,0,233.28,0c-24.67,54.88-59.96,76.39-85,84.79,45.96,8.93,78.65,38.16,110.43,66.58,33.4,29.86,64.95,58.06,108.9,58.06s73.33-34.2,73.77-67.27c.25-18.86-8.26-36.34-23.97-49.22-19.13-15.68-48.55-24.49-85.08-25.46l.37-14c90.45,2.41,122.55,48.44,122.69,87.65,30.57-58.85,110.6-70.01,110.6-70.01-37.49,78.11-95.24,86.49-112.54,87.19-3.41,14.94-11.24,29.04-22.55,40.16Z"/>
  </g>
</svg>