<?xml version="1.0" encoding="UTF-8"?>
<svg id="Layer_2" data-name="Layer 2" xmlns="http://www.w3.org/2000/svg" viewBox="0 0 475.36 392.8">
  <defs>
    <style>
      .cls-1 {
        fill: #404041;
      }
    </style>
  </defs>
  <g id="Layer_1-2" data-name="Layer 1">
    <path class="cls-1" d="M475.36,333.21l-11.27,8.3c-.13-.18-13.47-17.79-41.81-28.93-34.88-13.71-77.9-11.95-125.06,5.02,70.09.9,114.24,75.2,114.24,75.2-89.04-4.45-118.33-57.26-124.56-71.27-.39.15-.78.31-1.17.47-29.06,11.8-57.29,15.16-81.64,9.72-22.43-5.01-40.62-17.34-51.23-34.73-9.32-15.27-12.14-33.7-7.95-51.9,3.91-16.98,13.73-33.42,28.58-47.97-57.13,31.58-129.17-1.31-129.17-1.31,76.73-47.73,131.34-19.63,143.48-12.1,14.55-15.46,20.72-32.81,17.03-48.68-4.01-17.25-19.4-30.91-41.17-36.54-17.22-4.46-46.21-6.13-86.53,11.21-25.65,11.03-51.47,27.87-77.13,50.29v-18.34c23.77-19.54,47.71-34.54,71.6-44.81,26.39-11.35,48.57-15.16,66.26-15.31C163.6,10.13,257.42,0,257.42,0c-32.72,63.08-77.62,78.86-102.25,82.59,4.43.61,8.44,1.43,12,2.35,26.91,6.96,46.08,24.5,51.29,46.92,5.51,23.67-5.13,49.09-29.17,69.76-31.18,26.79-40.78,61.36-24.48,88.08,16.14,26.45,58.16,42.68,115.65,19.33,30.78-12.51,60.09-19.11,87.12-19.63,21.86-.43,42.31,3.11,60.73,10.51,31.71,12.73,46.44,32.47,47.05,33.3Z"/>
  </g>
</svg>