<?xml version="1.0" encoding="UTF-8"?>
<svg id="Layer_2" data-name="Layer 2" xmlns="http://www.w3.org/2000/svg" viewBox="0 0 186.55 186.55">
  <defs>
    <style>
      .cls-1 {
        fill: #bf92ff;
      }
    </style>
  </defs>
  <g id="Layer_1-2" data-name="Layer 1">
    <path class="cls-1" d="M183.84,97.09c-8.59,8.81-38.06,10.65-51.67,11.03,9.9,9.34,30.64,30.36,31.18,42.65.11,2.66-.65,4.88-2.27,6.6-1.62,1.72-3.79,2.6-6.46,2.64-12.31.16-34.45-19.38-44.33-28.73.39,13.6.21,43.13-8.11,52.2-1.81,1.97-3.92,2.99-6.27,3.06-.26.01-.51,0-.76-.01-2.07-.13-3.97-1.04-5.68-2.69-8.81-8.59-10.65-38.06-11.03-51.67-9.34,9.9-30.35,30.64-42.65,31.18-2.66.11-4.88-.65-6.6-2.27-1.71-1.62-2.6-3.79-2.64-6.46-.16-12.3,19.38-34.45,28.74-44.33-13.61.39-43.14.21-52.21-8.11-1.96-1.81-2.99-3.92-3.06-6.27-.06-2.36.85-4.53,2.71-6.44,3.01-3.09,8.6-5.32,15.16-6.94,12.15-2.99,27.66-3.85,36.49-4.09-1.63-1.55-3.57-3.42-5.67-5.52-10.54-10.55-25.05-26.87-25.5-37.13-.11-2.66.66-4.88,2.27-6.6,1.63-1.72,3.8-2.6,6.46-2.64,12.32-.16,34.46,19.38,44.33,28.73-.38-13.6-.2-43.13,8.12-52.2,1.8-1.96,3.91-3,6.27-3.06,2.36-.07,4.52.84,6.43,2.7,8.81,8.6,10.66,38.07,11.03,51.67,9.35-9.89,30.36-30.64,42.65-31.18,2.66-.11,4.88.65,6.61,2.27,1.71,1.63,2.6,3.8,2.63,6.46.16,12.31-19.38,34.45-28.73,44.33,13.6-.39,43.13-.2,52.2,8.12,1.97,1.8,3,3.91,3.06,6.27.07,2.37-.84,4.53-2.7,6.44Z"/>
  </g>
</svg>